<svg width="161" height="172" viewBox="0 0 161 172" fill="none" xmlns="http://www.w3.org/2000/svg">
<path d="M66.5846 66.1914L66.6853 56.5404L57.0136 56.0471L52.2586 63.2649L57.2139 72.7061H61.4311L66.5846 66.1914ZM89.5167 67.2503L89.3512 51.3822L106.418 50.5119L114.592 62.9219L106.613 78.1282H97.3281L90.1124 69.0076L89.5167 67.2503ZM94.3151 56.5404L94.4153 66.1914L99.5698 72.7055H103.792L108.744 63.2696L103.987 56.0471L94.3151 56.5404ZM84.9793 80.1719L80.5002 75.4487L76.0216 80.1725L72.6138 76.2755L78.7968 69.7549H82.2035L88.3876 76.2749L84.9793 80.1719ZM114.065 32.9377C115.49 36.6922 118.67 45.0266 122.083 53.641C126.979 65.9975 124.922 68.9487 120.799 74.8611C120.391 75.4457 119.975 76.0415 119.864 76.2047C117.06 80.3186 121.383 84.7537 121.396 84.7661L120.934 89.055L106.003 98.6506L98.0561 95.3358V137.057H93.1281V91.4169L96.4582 88.8859L105.539 92.6721L115.984 85.9594C114.231 83.0229 112.459 78.0658 115.937 72.9642C116.476 72.1722 116.693 71.8616 116.891 71.5787C119.842 67.3458 121.314 65.2332 117.578 55.8008C112.812 43.7744 108.749 32.969 108.737 32.9377H114.065ZM37.6526 32.9377C36.6268 50.3745 17.2615 58.4957 5.95607 46.0585C-5.68197 33.2548 2.49792 11.1448 19.1732 11.1448V16.5676C6.86935 16.5676 0.903293 32.8328 9.44154 42.2257C17.6445 51.2502 31.6956 45.5588 32.7096 32.9377H37.6526ZM128.29 32.9377C129.305 45.5588 143.356 51.2502 151.559 42.2257C160.097 32.8334 154.132 16.5676 141.827 16.5676V11.1448C158.503 11.1448 166.682 33.256 155.043 46.0585C143.739 58.4957 124.374 50.374 123.348 32.9377H128.29ZM47.6119 120.794H42.6839V99.5652H47.6119V120.794ZM118.317 120.794H113.389V99.5652H118.317V120.794ZM57.7421 137.057H52.8136V103.431H57.7421V137.057ZM108.187 137.057H103.258V103.431H108.187V137.057ZM67.8728 91.4169V137.057H62.9437V95.3358L54.9963 98.6506L40.0667 89.055L39.6045 84.7661C39.6162 84.7537 43.94 80.3181 41.1359 76.2047C41.0239 76.0415 40.6093 75.4457 40.2012 74.8611C36.0794 68.9487 34.0214 65.9975 38.9178 53.641C42.3309 45.0266 45.5111 36.6922 46.9348 32.9377H52.2629C52.2511 32.969 48.1882 43.7744 43.4226 55.8008C39.6853 65.2332 41.1589 67.3458 44.1098 71.5787C44.3075 71.8616 44.5233 72.1722 45.0633 72.9642C48.5412 78.0658 46.7698 83.0229 45.0167 85.9594L55.4607 92.6721L64.5416 88.8859L67.8728 91.4169ZM78.003 137.057H73.0739V91.4169H78.003V137.057ZM87.9259 137.057H82.9974V91.4169H87.9259V137.057ZM80.4996 22.2903H141.898C149.385 22.2903 153.212 32.2931 147.876 38.1731L147.881 38.1778C142.946 43.607 134.512 40.4572 133.527 32.9377H138.584C139.468 35.5849 142.568 36.3557 144.396 34.3444C144.682 34.3444 146.574 31.2459 144.396 28.8498C143.758 28.1467 142.873 27.7118 141.898 27.7118L19.1014 27.713C14.4515 27.713 14.4515 35.4818 19.1014 35.4818C20.6039 35.4818 21.9136 34.4446 22.4166 32.9377H27.4736C26.487 40.4572 18.0548 43.607 13.1198 38.1778C7.80191 32.3284 11.5906 22.2903 19.1014 22.2903H80.4996ZM82.9642 154.862H117.158V160.284H43.842V154.862H82.9642ZM80.5002 11.1448H141.827V16.5676H19.1732V11.1448H80.5002ZM82.9642 143.715H108.187V149.138H52.8141V143.715H82.9642ZM80.5002 -5.59583e-06H128.739V5.42273H32.2618V-5.59583e-06H80.5002ZM33.7182 171.429H130.196V166.006H81.9577H33.7182V171.429ZM71.6218 53.9828L71.4831 67.2503L70.8863 69.0076L63.6717 78.1282H54.3819L46.4045 62.926L54.5823 50.5119L71.6486 51.3822L71.6218 53.9828Z" fill="#3A3A38"/>
</svg>
