<svg width="160" height="160" viewBox="0 0 160 160" fill="none" xmlns="http://www.w3.org/2000/svg">
<path d="M80 16.1937C69.6675 16.1937 59.5495 16.9823 49.9116 18.4814V25.7752C59.5235 24.2624 69.6455 23.467 80 23.467C90.3545 23.467 100.477 24.2624 110.088 25.7752V18.4814C100.451 16.9823 90.3332 16.1937 80 16.1937ZM110.088 152.513H49.9116V160H110.088V152.513ZM104.509 137.479H55.4901V144.966H104.509V137.479ZM55.4901 39.546H104.509V32.0591H55.4901V39.546ZM95.5774 47.093H89.7664V129.932H95.5774V47.093ZM82.9052 47.093H77.0942V129.932H82.9052V47.093ZM70.233 129.932H64.422V47.093H70.233V129.932Z" fill="#3A3A38"/>
<path d="M138.178 80.6963L136.87 22.2777C137.097 22.2923 137.323 22.2906 137.547 22.2649L148.205 80.9691C144.913 80.8052 141.563 80.722 138.178 80.6963ZM124.606 80.9691L135.338 21.8573C135.535 21.9551 135.733 22.034 135.932 22.0975L134.62 80.6963C131.24 80.722 127.894 80.8052 124.606 80.9691ZM25.3804 80.6963L24.0683 22.0975C24.2675 22.034 24.4653 21.9551 24.6617 21.8573L35.3939 80.9691C32.1064 80.8052 28.7604 80.722 25.3804 80.6963ZM11.7951 80.9691L22.4533 22.2649C22.677 22.2906 22.9028 22.2923 23.1299 22.2777L21.8219 80.6963C18.4372 80.722 15.0872 80.8052 11.7951 80.9691ZM152.501 81.236L138.816 21.9019C139.691 21.4943 140.473 20.7743 141.058 19.7978C142.834 20.5658 144.604 21.3664 146.365 22.2082C146.469 21.9354 146.837 21.2437 146.771 20.9957C146.656 20.5573 145.392 19.8974 145.103 19.6717C137.39 13.6358 128.74 9.43886 120.034 6.47928C110.719 3.3129 101.188 1.37359 91.5799 0.526645C72.496 -1.15523 53.0205 1.11273 34.7199 8.44947C30.2882 10.2257 25.8699 12.3478 21.6933 14.9659C19.8012 16.1518 17.9071 17.3617 16.0888 18.7286C15.2423 19.3645 14.4112 20.0398 13.5773 20.704C13.0978 21.0858 13.1564 21.0627 13.4328 21.7157C13.7358 22.4313 13.9017 22.0718 14.5091 21.7818C15.4475 21.3347 16.3772 20.8567 17.323 20.4363C17.8518 20.202 18.3819 19.9763 18.9114 19.7463C19.5002 20.7486 20.294 21.4866 21.1838 21.9019L7.49929 81.236C4.96978 81.4093 2.46091 81.6076 0 81.859C5.12962 92.6333 13.7771 99.7289 23.6015 99.7289C33.4251 99.7289 42.0726 92.6333 47.2022 81.859C44.732 81.6067 42.2138 81.4085 39.675 81.2351L25.808 21.0541C27.0228 19.9137 27.7567 18.134 27.8413 16.2419C30.8017 15.2259 33.7901 14.3292 36.7858 13.5457C55.4255 8.67001 74.6319 7.29533 93.6046 8.7009C103.211 9.41226 112.771 10.8985 122.214 13.2926C125.569 14.143 128.881 15.1598 132.161 16.3105C132.261 18.1769 132.992 19.9274 134.192 21.0541L120.325 81.2351C117.786 81.4085 115.268 81.6067 112.798 81.859C117.927 92.6333 126.575 99.7289 136.399 99.7289C146.223 99.7289 154.87 92.6333 160 81.859C157.539 81.6076 155.03 81.4093 152.501 81.236Z" fill="#3A3A38"/>
</svg>
