<svg width="160" height="160" viewBox="0 0 160 160" fill="none" xmlns="http://www.w3.org/2000/svg">
<path d="M91.341 68.3184C94.7012 68.9102 98.3438 68.9085 101.704 68.3141L104.589 59.7462L88.4499 59.753L91.341 68.3184ZM99.8297 71.7103L104.924 120.908L96.3717 126.83L87.8155 120.915L92.8803 71.6744C94.0785 71.8129 95.296 71.8908 96.5237 71.8908C97.6365 71.8899 98.7401 71.8249 99.8297 71.7103ZM123.886 68.3047C127.247 68.8965 130.889 68.8957 134.249 68.3013L137.135 59.7333L120.995 59.7393L123.886 68.3047ZM132.375 71.6966L137.469 120.895L128.917 126.816L120.361 120.902L125.426 71.6607C126.624 71.8001 127.841 71.8779 129.069 71.8771C130.181 71.8771 131.286 71.8121 132.375 71.6966ZM58.7961 68.3321C62.1564 68.923 65.7989 68.9222 69.1584 68.3278L72.0441 59.7598L55.905 59.7658L58.7961 68.3321ZM67.2848 71.7231L72.3783 120.922L63.8268 126.843L55.2706 120.928L60.3355 71.6872C61.5336 71.8266 62.7504 71.9045 63.978 71.9036C65.0909 71.9036 66.1952 71.8386 67.2848 71.7231ZM26.2504 68.3449C29.6107 68.9367 33.2533 68.935 36.6135 68.3406L39.4984 59.7727L23.3594 59.7795L26.2504 68.3449ZM34.7391 71.7368L39.8334 120.934L31.2812 126.856L22.725 120.941L27.7898 71.7009C28.988 71.8395 30.2055 71.9173 31.4332 71.9173C32.546 71.9164 33.6495 71.8514 34.7391 71.7368Z" fill="#3A3A38"/>
<path d="M22.1981 29.5823L137.8 29.528L79.9926 7.19796L22.1981 29.5823ZM0 30.9806L79.9903 -3.04135e-07L160 30.9056V30.9086C160 33.945 158.067 36.4062 155.681 36.4072L4.32267 36.4782C1.93566 36.4792 0 34.0171 0 30.9806ZM145.794 41.7844L14.1894 41.8466C14.1902 45.1989 16.3267 47.9156 18.9611 47.9137L141.026 47.8564C143.66 47.8554 145.794 45.1367 145.794 41.7844ZM134.648 159.949L134.646 152.517L25.4234 152.567L25.4257 160L134.648 159.949ZM3.72786 160C3.72708 155.895 6.34131 152.566 9.56664 152.565L13.3782 152.563L13.3759 146.533C13.3751 142.375 16.0227 139.004 19.2892 139.002L140.772 138.945C144.039 138.944 146.688 142.312 146.689 146.47L146.692 152.5L150.502 152.498C153.728 152.497 156.344 155.823 156.345 159.928L140.853 159.936L140.849 146.378L19.217 146.435L19.2209 159.993L3.72786 160Z" fill="#3A3A38"/>
</svg>
