<svg width="44" height="44" viewBox="0 0 44 44" fill="none" xmlns="http://www.w3.org/2000/svg">
<path fill-rule="evenodd" clip-rule="evenodd" d="M22.4574 3.66667C30.7973 3.66667 37.5824 10.5032 37.5824 18.9072C37.5824 29.238 25.7464 39.4167 22.4574 39.4167C19.1684 39.4167 7.33242 29.238 7.33242 18.9072C7.33242 10.5032 14.1176 3.66667 22.4574 3.66667ZM22.4574 6.41667C15.6338 6.41667 10.0824 12.0212 10.0824 18.9072C10.0824 27.6687 20.3931 36.2047 22.4574 36.6593C24.5218 36.2028 34.8324 27.6668 34.8324 18.9072C34.8324 12.0212 29.2811 6.41667 22.4574 6.41667ZM22.4592 12.8333C25.7446 12.8333 28.4176 15.5063 28.4176 18.7935C28.4176 22.0788 25.7446 24.75 22.4592 24.75C19.1739 24.75 16.5009 22.0788 16.5009 18.7935C16.5009 15.5063 19.1739 12.8333 22.4592 12.8333ZM22.4592 15.5833C20.6901 15.5833 19.2509 17.0225 19.2509 18.7935C19.2509 20.5627 20.6901 22 22.4592 22C24.2284 22 25.6676 20.5627 25.6676 18.7935C25.6676 17.0225 24.2284 15.5833 22.4592 15.5833Z" fill="black"/>
</svg>
