<svg width="160" height="160" viewBox="0 0 160 160" fill="none" xmlns="http://www.w3.org/2000/svg">
<path d="M69.4641 49.7867C76.4687 50.8527 84.0615 50.8502 91.0652 49.7792L97.0793 34.3441L63.4377 34.3559L69.4641 49.7867ZM87.1589 55.8965L97.7769 144.529L79.9507 160L62.1156 144.542L72.6736 55.8318C75.1704 56.0823 77.7078 56.2227 80.2673 56.2219C82.586 56.221 84.8879 56.1042 87.1589 55.8965Z" fill="#3A3A38"/>
<path d="M55.9658 23.2431H103.927L108.51 15.9673H51.3831L55.9658 23.2431ZM158.889 22.9959C156.601 15.1855 150.974 8.89665 143.693 4.83298C140.059 2.80619 136.066 1.37541 131.926 0.638161C130.445 0.374199 128.953 0.207754 127.449 0.120327C126.822 0.084179 125.178 0.00600056 124.924 0.000956691V0.000110095H35.0738L35.073 0.000956691C34.8198 0.00600056 33.1776 0.084179 32.5506 0.120327C31.0477 0.207754 29.5545 0.374199 28.0737 0.638161C23.9338 1.37541 19.9403 2.80619 16.3075 4.83298C9.02509 8.89665 3.39817 15.1855 1.11125 22.9959C-1.09278 30.5214 0.0229016 38.7504 4.09228 45.5286C8.2128 52.3924 15.4202 57.3312 23.6974 58.3997C31.4463 59.4 39.5251 56.8403 44.9933 51.4862C50.2348 46.3541 52.3162 39.0253 50.3485 32.0934C48.477 25.4968 43.0371 19.9192 35.8191 18.7347C29.2123 17.6511 22.1372 20.3656 18.8987 26.1097C16.9433 29.579 16.7211 33.8873 18.7937 37.3592C20.704 40.5604 24.3448 42.878 28.2995 42.5468C30.3439 42.3761 32.3803 41.5515 33.7879 40.1047C34.1839 39.697 34.5288 39.2439 34.8066 38.7555C35.0042 38.4066 35.1197 38.3326 34.7705 38.1225C34.363 37.8779 34.1169 37.5988 33.7121 37.8863C33.2297 38.2292 32.779 38.6252 32.2745 38.9371C31.4843 39.4246 30.3897 39.6256 29.4646 39.6592C27.496 39.7298 25.8097 38.911 24.4603 37.587C22.9645 36.0898 22.3595 33.3905 23.0315 31.325C23.663 29.3857 25.1412 27.7439 26.9483 26.6981C29.0262 25.496 31.546 25.1555 33.9149 25.6229C36.0087 26.0357 37.9199 27.216 39.2535 28.4425C40.4926 29.7522 41.4848 31.1821 42.0969 32.8575C43.4348 36.5227 42.8713 40.6747 40.49 43.8363C38.0963 47.014 34.2254 49.1383 30.2116 49.8058C25.9385 50.5153 21.4731 49.6032 17.9117 47.2401C14.6397 45.0696 12.1437 41.8491 10.7026 38.3226C7.81945 31.267 9.26057 22.9934 14.3257 17.1711C18.2522 12.6585 23.7856 9.73393 29.7195 8.40319C32.1501 7.85761 34.6514 7.65334 37.1482 7.65334H122.851C125.348 7.65334 127.849 7.85761 130.28 8.40319C136.214 9.73393 141.748 12.6585 145.674 17.1711C150.739 22.9934 152.18 31.267 149.297 38.3226C147.857 41.8491 145.361 45.0696 142.088 47.2401C138.526 49.6032 134.061 50.5153 129.789 49.8058C125.774 49.1383 121.903 47.014 119.509 43.8363C117.129 40.6747 116.565 36.5227 117.903 32.8575C118.515 31.1821 119.508 29.7522 120.747 28.4425C122.079 27.216 123.991 26.0357 126.085 25.6229C128.453 25.1555 130.974 25.496 133.051 26.6981C134.858 27.7439 136.336 29.3857 136.968 31.325C137.64 33.3905 137.035 36.0898 135.54 37.587C134.19 38.911 132.504 39.7298 130.535 39.6592C129.61 39.6256 128.515 39.4246 127.726 38.9371C127.22 38.6252 126.77 38.2292 126.287 37.8863C125.882 37.5988 125.636 37.8779 125.229 38.1225C124.88 38.3326 124.995 38.4066 125.193 38.7555C125.471 39.2439 125.815 39.697 126.212 40.1047C127.619 41.5515 129.655 42.3761 131.7 42.5468C135.655 42.878 139.295 40.5604 141.207 37.3592C143.279 33.8873 143.057 29.579 141.101 26.1097C137.862 20.3656 130.787 17.6511 124.181 18.7347C116.962 19.9192 111.522 25.4968 109.651 32.0934C107.684 39.0253 109.765 46.3541 115.006 51.4862C120.474 56.8403 128.553 59.4 136.302 58.3997C144.579 57.3312 151.787 52.3924 155.907 45.5286C159.976 38.7504 161.093 30.5214 158.889 22.9959ZM49.1094 69.1683C49.1094 66.0756 46.4794 63.5688 43.2355 63.5688C39.9908 63.5688 37.3608 66.0756 37.3608 69.1683V136.725H40.4618L49.1094 69.1683ZM110.782 69.1683C110.782 66.0756 113.413 63.5688 116.657 63.5688C119.902 63.5688 122.532 66.0756 122.532 69.1683V136.725H119.431L110.782 69.1683Z" fill="#3A3A38"/>
</svg>
