<svg width="44" height="44" viewBox="0 0 44 44" fill="none" xmlns="http://www.w3.org/2000/svg">
<path fill-rule="evenodd" clip-rule="evenodd" d="M30.5413 3.66667C36.6463 3.66667 41.2498 8.64783 41.2498 15.2533V27.8447C41.2498 31.2253 40.0545 34.2797 37.882 36.4467C35.9331 38.3882 33.405 39.4167 30.5706 39.4167H12.5068C9.67798 39.4167 7.15165 38.39 5.20098 36.4467C3.02848 34.2797 1.83315 31.2253 1.83315 27.8447V15.2533C1.83315 8.64783 6.43665 3.66667 12.5416 3.66667H30.5413ZM30.5413 6.41667H12.5416C7.93082 6.41667 4.58315 10.1328 4.58315 15.2533V27.8447C4.58315 30.4902 5.49248 32.8533 7.14248 34.4978C8.56515 35.9187 10.4223 36.6667 12.5123 36.6667H30.5413C30.545 36.663 30.5596 36.6667 30.5706 36.6667C32.6625 36.6667 34.5178 35.9187 35.9405 34.4978C37.5923 32.8533 38.4998 30.4902 38.4998 27.8447V15.2533C38.4998 10.1328 35.1521 6.41667 30.5413 6.41667ZM33.4306 14.9028C33.9091 15.4913 33.8193 16.3566 33.2308 16.837L25.0835 23.459C24.0531 24.2766 22.8211 24.6855 21.591 24.6855C20.3645 24.6855 19.1416 24.2803 18.1186 23.47L9.89615 16.8406C9.30398 16.364 9.21232 15.4968 9.68715 14.9065C10.1656 14.318 11.031 14.2245 11.6213 14.6993L19.8365 21.3213C20.8686 22.139 22.3225 22.139 23.362 21.314L31.4946 14.703C32.085 14.2208 32.9503 14.3125 33.4306 14.9028Z" fill="black"/>
</svg>
