<svg width="54" height="54" viewBox="0 0 54 54" fill="none" xmlns="http://www.w3.org/2000/svg">
<path fill-rule="evenodd" clip-rule="evenodd" d="M27.5614 4.5C37.7967 4.5 46.1239 12.8902 46.1239 23.2042C46.1239 35.883 31.5979 48.375 27.5614 48.375C23.5249 48.375 8.9989 35.883 8.9989 23.2042C8.9989 12.8902 17.3262 4.5 27.5614 4.5ZM27.5614 7.875C19.1869 7.875 12.3739 14.7532 12.3739 23.2042C12.3739 33.957 25.0279 44.433 27.5614 44.991C30.0949 44.4308 42.7489 33.9547 42.7489 23.2042C42.7489 14.7532 35.9359 7.875 27.5614 7.875ZM27.5637 15.75C31.5957 15.75 34.8762 19.0305 34.8762 23.0648C34.8762 27.0968 31.5957 30.375 27.5637 30.375C23.5317 30.375 20.2512 27.0968 20.2512 23.0648C20.2512 19.0305 23.5317 15.75 27.5637 15.75ZM27.5637 19.125C25.3924 19.125 23.6262 20.8913 23.6262 23.0648C23.6262 25.236 25.3924 27 27.5637 27C29.7349 27 31.5012 25.236 31.5012 23.0648C31.5012 20.8913 29.7349 19.125 27.5637 19.125Z" fill="#FC0000"/>
</svg>
