<svg width="44" height="44" viewBox="0 0 44 44" fill="none" xmlns="http://www.w3.org/2000/svg">
<path fill-rule="evenodd" clip-rule="evenodd" d="M7.99242 9.27795C7.99608 9.27795 7.90442 9.37328 7.78892 9.48695C7.34525 9.91778 6.42675 10.8143 6.41749 12.6898C6.40292 15.3133 8.12808 20.1844 16.4349 28.4894C24.7033 36.7541 29.5671 38.4995 32.1961 38.4995H32.2346C34.1101 38.4903 35.0048 37.5699 35.4374 37.1281C35.5694 36.9924 35.6758 36.8935 35.7509 36.8311C37.5769 34.9941 38.5119 33.6265 38.5028 32.7501C38.4899 31.8555 37.3771 30.7976 35.8389 29.3346C35.3494 28.869 34.8178 28.3629 34.2568 27.8019C32.8029 26.3518 32.0824 26.5993 30.4984 27.1566C28.3076 27.9248 25.3009 28.9698 20.6296 24.2966C15.9509 19.6216 16.9978 16.6186 17.7641 14.4278C18.3178 12.8438 18.5708 12.1214 17.1151 10.6658C16.5449 10.0974 16.0334 9.55845 15.5623 9.06345C14.1084 7.53445 13.0598 6.42895 12.1706 6.41612H12.1559C11.2778 6.41612 9.91375 7.35478 7.98325 9.28528C7.98875 9.27978 7.99242 9.27795 7.99242 9.27795ZM32.1979 41.2495C27.6293 41.2495 21.6728 37.6121 14.4916 30.4346C7.28292 23.2278 3.64008 17.2529 3.66743 12.6751C3.68408 9.65012 5.26992 8.10095 5.86575 7.51978C5.89692 7.48128 6.00325 7.37678 6.03992 7.34012C8.66892 4.70928 10.4418 3.64595 12.2054 3.66584C14.2533 3.69362 15.7108 5.22628 17.5551 7.16778C18.0116 7.64812 18.5066 8.17062 19.0584 8.72062C21.7351 11.3973 20.9724 13.5808 20.3601 15.3334C19.6928 17.2456 19.1153 18.8956 22.5729 22.3533C26.0343 25.811 27.6843 25.2335 29.5891 24.5606C31.3436 23.9483 33.5216 23.182 36.2019 25.8586C36.7446 26.4013 37.2598 26.8908 37.7346 27.3436C39.6853 29.1971 41.2253 30.662 41.2513 32.7153C41.2729 34.4661 40.2096 36.25 37.5843 38.8771L36.4219 38.0888L37.4046 39.0495C36.8234 39.6453 35.2761 41.233 32.2493 41.2495H32.1979Z" fill="black"/>
</svg>
