<svg width="44" height="44" viewBox="0 0 44 44" fill="none" xmlns="http://www.w3.org/2000/svg">
<path fill-rule="evenodd" clip-rule="evenodd" d="M29.9457 3.66667C36.1588 3.66667 40.3333 8.02633 40.3333 14.5127V29.4873C40.3333 35.9737 36.1588 40.3333 29.9438 40.3333H14.0525C7.83933 40.3333 3.66667 35.9737 3.66667 29.4873V14.5127C3.66667 8.02633 7.83933 3.66667 14.0525 3.66667H29.9457ZM29.9457 6.41667H14.0525C9.41417 6.41667 6.41667 9.59383 6.41667 14.5127V29.4873C6.41667 34.4062 9.41417 37.5833 14.0525 37.5833H29.9438C34.584 37.5833 37.5833 34.4062 37.5833 29.4873V14.5127C37.5833 9.59383 34.5858 6.41667 29.9457 6.41667ZM21.9983 12.6199C22.7573 12.6199 23.3733 13.2359 23.3733 13.9949V21.2109L28.921 24.5164C29.5718 24.9069 29.7863 25.7503 29.3977 26.4029C29.1392 26.8338 28.6827 27.0739 28.2152 27.0739C27.975 27.0739 27.733 27.0116 27.5112 26.8814L21.2943 23.1726C20.88 22.9233 20.6233 22.4741 20.6233 21.9919V13.9949C20.6233 13.2359 21.2393 12.6199 21.9983 12.6199Z" fill="black"/>
</svg>
